<?xml version="1.0" encoding="UTF-8"?>
<svg width="45px" height="75px" viewBox="0 0 30 50" version="1.1" xmlns="http://www.w3.org/2000/svg" xmlns:xlink="http://www.w3.org/1999/xlink">
    <title>B5BA4F0D-B8AF-408A-B683-2E3C8C3DF20B</title>
    <g id="Index-Page" stroke="none" stroke-width="1" fill="none" fill-rule="evenodd">
        <g id="Index-003-Current" transform="translate(-285.000000, -36.000000)" fill="#000" fill-rule="nonzero">
            <g id="UI/Header" transform="translate(230.000000, 0.000000)">
                <g id="img/img-govua-shield-light" transform="translate(55.000000, 30.000000)">
                    <path d="M13.5082329,54.2773125 C10.9005093,52.3039361 9.02115976,49.3438715 8.38681247,45.9139696 L0,45.9139696 L0,9.7823171 C4.48707316,12.0376256 7.72906986,16.9710666 8.08141075,22.092487 L9.35003107,32.241301 L8.73922763,32.170818 C7.40012428,32.170818 6.22553085,33.439364 6.22553085,34.6845148 C6.22553085,35.8591082 7.11826642,36.8457964 8.29285985,37.1042589 L9.81986844,37.4565998 C12.3335652,32.6875945 13.7666212,28.0126161 13.7666212,23.4315161 C13.7666212,19.2968581 13.2263008,15.1621258 13.1323482,10.9335152 C13.1323482,9.05409146 13.8605738,7.33910335 15.0117719,6 C16.1863654,7.33910335 16.8911214,9.05409146 16.8911214,10.9335152 C16.8911214,15.1621258 16.2568484,19.2968581 16.2568484,23.4315161 C16.2568484,28.0126161 17.6899044,32.6875945 20.2036011,37.4565998 L21.7306097,37.1042589 C22.9052774,36.8457964 23.7979387,35.8356386 23.7979387,34.6845148 C23.7979387,33.4158945 22.6233453,32.170818 21.284242,32.170818 L20.6499689,32.2647706 L21.9185893,22.1159566 C22.5528623,16.9945361 25.5129268,12.0376256 30,9.80586096 L30,45.9374392 L21.6366571,45.9374392 C21.0023841,49.3438715 19.216913,52.4214326 16.5152367,54.3007821 C15.8809636,54.7471499 15.3406432,55.2874703 14.9882281,56.0157702 C14.6593568,55.2874703 14.1190364,54.7471499 13.5082329,54.2773125 Z M3.97022234,33.439364 C4.32263751,32.100335 5.30932569,30.9256673 6.57787174,30.1974416 L5.59118356,21.8340245 C5.23884266,19.2263751 4.15820185,16.9005835 2.53716637,14.9976902 L2.53716637,33.4158945 L3.97022234,33.4158945 L3.97022234,33.439364 Z M8.19890723,43.4002728 C8.19890723,42.1316525 8.38681247,40.9805287 8.64527501,39.805861 L7.47060731,39.5240031 C5.75569348,38.9836084 4.41659013,37.6445793 3.97022234,35.9295912 L2.53716637,35.9295912 L2.53716637,43.4002728 L8.19890723,43.4002728 Z M13.7666212,43.4002728 C13.7666212,41.8732642 12.5920278,40.5341609 11.0650192,40.3461814 C10.8065566,41.3328696 10.6186514,42.3195577 10.6186514,43.4002728 L13.7666212,43.4002728 Z M13.7666212,45.9374392 L10.9709923,45.9374392 C11.4173601,47.9108156 12.4040483,49.7197563 13.7666212,51.2467649 L13.7666212,45.9374392 Z M17.713374,38.1144167 C16.6327331,36.1410403 15.646045,34.0737113 15.0117719,31.9123555 C14.3774246,34.0737113 13.3907364,36.1410403 12.3100956,38.1144167 C13.3907364,38.372805 14.283472,39.1011049 15.0117719,39.9233574 C15.7399976,39.1011049 16.6327331,38.372805 17.713374,38.1144167 Z M19.4283621,43.4002728 C19.4283621,42.3195577 19.2403825,41.3328696 18.9819943,40.3461814 C17.4549857,40.5341609 16.280318,41.8732642 16.280318,43.4002728 L19.4283621,43.4002728 Z M19.0759469,45.9374392 L16.280318,45.9374392 L16.280318,51.2467649 C17.6428909,49.6962867 18.6295791,47.9108156 19.0759469,45.9374392 Z M27.5097728,43.4002728 L27.5097728,35.9295912 L26.0767168,35.9295912 C25.6304233,37.6445793 24.2678504,38.9836084 22.5763319,39.5240031 L21.4017384,39.805861 C21.6601267,40.9805287 21.8481062,42.1316525 21.8481062,43.4002728 L27.5097728,43.4002728 Z M27.5097728,33.439364 L27.5097728,14.9976902 C25.8888116,16.8771139 24.7141439,19.2263751 24.4557556,21.8340245 L23.4690674,30.1974416 C24.7376878,30.9256673 25.7243759,32.0767911 26.0767168,33.439364 L27.5097728,33.439364 Z" id="Shape"></path>
                </g>
            </g>
        </g>
    </g>
</svg>